<?xml version="1.0" encoding="UTF-8"?>
<svg id="Layer_2" data-name="Layer 2" xmlns="http://www.w3.org/2000/svg" viewBox="0 0 424.59 117.35">
  <defs>
    <style>
      .cls-1 {
        fill: #000;
      }

      .cls-1, .cls-2 {
        stroke-width: 0px;
      }

      .cls-2 {
        fill: #fff;
      }
    </style>
  </defs>
  <g id="Layer_1-2" data-name="Layer 1">
    <g id="Horizontal_-_Black" data-name="Horizontal - Black">
      <g>
        <g>
          <g>
            <path class="cls-1" d="M174.6,47.48v2.47h-9.83v19.38h-2.78v-19.38h-9.83v-2.47h22.43Z"/>
            <path class="cls-1" d="M185.74,47.48h2.78v9.64h14.13v-9.64h2.78v21.84h-2.78v-9.67h-14.13v9.67h-2.78v-21.84Z"/>
            <path class="cls-1" d="M218.44,47.48h17.66v2.53h-14.88v7.11h12.95v2.53h-12.95v7.15h15.07v2.53h-17.85v-21.84Z"/>
            <path class="cls-1" d="M266.37,47.48h2.78l9.39,17.5,9.39-17.5h2.78v21.84h-2.78v-16.44l-8.86,16.44h-1.06l-8.86-16.47v16.47h-2.78v-21.84Z"/>
            <path class="cls-1" d="M314.55,69.85c-5.37,0-11.67-3.78-11.67-11.45s6.3-11.45,11.67-11.45,11.67,3.74,11.67,11.45-6.3,11.45-11.67,11.45ZM314.55,49.64c-4.12,0-8.92,2.87-8.92,8.77s4.81,8.77,8.92,8.77,8.92-2.87,8.92-8.77-4.8-8.77-8.92-8.77Z"/>
            <path class="cls-1" d="M337.74,47.48h2.78l9.39,17.5,9.39-17.5h2.78v21.84h-2.78v-16.44l-8.86,16.44h-1.06l-8.86-16.47v16.47h-2.78v-21.84Z"/>
            <path class="cls-1" d="M385.42,46.95c3.62,0,7.18,1.65,9.33,4.68l-2,1.9c-1.69-2.37-4.74-3.9-7.27-3.9-5.68,0-8.52,4.4-8.52,8.77s2.84,8.74,8.52,8.74c2.78,0,5.58-1.69,7.18-3.96l2.09,1.97c-2.21,3-5.93,4.71-9.33,4.71-5.18,0-11.26-3.78-11.26-11.45s6.08-11.45,11.26-11.45Z"/>
            <path class="cls-1" d="M415.04,65.31c-4.4,0-9.56-3.04-9.56-9.28s5.16-9.28,9.56-9.28,9.56,3.04,9.56,9.28-5.16,9.28-9.56,9.28ZM415.04,49.54c-3.07,0-6.64,2.11-6.64,6.49s3.57,6.49,6.64,6.49,6.64-2.14,6.64-6.49-3.57-6.49-6.64-6.49Z"/>
          </g>
          <rect class="cls-1" x="406.34" y="68.51" width="18.22" height="2.09"/>
        </g>
        <g>
          <path class="cls-1" d="M0,0v117.35h117.35V0H0ZM34.1,85.99c-1.41,0-2.65-.65-3.48-1.66-.65-.79-1.06-1.78-1.06-2.88,0-2.51,2.03-4.54,4.54-4.54s4.54,2.03,4.54,4.54c0,2.32-1.75,4.22-4,4.48-.18.02-.35.05-.53.05ZM79.14,85.2l-4.33-46.15-17.31,42.99h-.27l-18.68-41.75-2.06,22.94c-.27,3-.48,5.78-.63,8.36-.22-.02-.45-.03-.68-.03-.31,0-.61.03-.9.06.29-2.62.57-5.43.84-8.46l2.33-25.48-1.03-2.27v-.21h5.08l17.51,39.49,15.93-39.49h4.26l4.67,49.99h-4.74Z"/>
          <path class="cls-2" d="M74.95,35.21l-15.93,39.49-17.51-39.49h-5.08v.21l1.03,2.27-2.33,25.48c-.27,3.03-.55,5.84-.84,8.46.3-.04.6-.06.9-.06.23,0,.46.01.68.03.16-2.58.36-5.36.63-8.36l2.06-22.94,18.68,41.75h.27l17.31-42.99,4.33,46.15h4.74l-4.67-49.99h-4.26Z"/>
          <path class="cls-2" d="M38.64,81.45c0-2.51-2.03-4.54-4.54-4.54s-4.54,2.03-4.54,4.54c0,1.1.41,2.1,1.06,2.88.83,1,2.07,1.66,3.48,1.66.18,0,.36-.03.53-.05,2.25-.27,4-2.16,4-4.48Z"/>
        </g>
      </g>
    </g>
  </g>
</svg>