<?xml version="1.0" encoding="UTF-8"?>
<svg id="Layer_2" data-name="Layer 2" xmlns="http://www.w3.org/2000/svg" viewBox="0 0 274.19 234.89">
  <defs>
    <style>
      .cls-1 {
        fill: #000;
      }

      .cls-1, .cls-2 {
        stroke-width: 0px;
      }

      .cls-2 {
        fill: #fff;
      }
    </style>
  </defs>
  <g id="Layer_1-2" data-name="Layer 1">
    <g id="Stacked_-_Black" data-name="Stacked - Black">
      <g>
        <g>
          <path class="cls-1" d="M56.88,0v161.14h161.14V0H56.88ZM103.76,105.82c3.43,0,6.22,2.78,6.22,6.22s-2.78,6.22-6.22,6.22-6.22-2.78-6.22-6.22,2.78-6.22,6.22-6.22ZM165.5,116.94l-5.93-63.26-23.72,58.93h-.38l-25.61-57.24-2.82,31.44c-.39,4.33-.68,8.32-.9,12.01-.41-.04-.82-.07-1.23-.07-.32,0-.64.02-.95.05.42-3.73.82-7.75,1.2-12.09l3.2-34.93-1.41-3.11v-.28h6.97l24.01,54.13,21.84-54.13h5.84l6.4,68.53h-6.5Z"/>
          <path class="cls-2" d="M159.76,48.41l-21.84,54.13-24.01-54.13h-6.97v.28l1.41,3.11-3.2,34.93c-.39,4.34-.79,8.36-1.2,12.09.32-.03.63-.05.95-.05.42,0,.83.02,1.23.07.22-3.69.51-7.68.9-12.01l2.82-31.44,25.61,57.24h.38l23.72-58.93,5.93,63.26h6.5l-6.4-68.53h-5.84Z"/>
          <circle class="cls-2" cx="103.76" cy="112.04" r="6.22"/>
        </g>
        <g>
          <g>
            <path class="cls-1" d="M22.58,211.63v2.48h-9.89v19.5h-2.8v-19.5H0v-2.48h22.58Z"/>
            <path class="cls-1" d="M33.79,211.63h2.79v9.7h14.23v-9.7h2.8v21.98h-2.8v-9.73h-14.23v9.73h-2.79v-21.98Z"/>
            <path class="cls-1" d="M66.71,211.63h17.77v2.54h-14.98v7.16h13.03v2.54h-13.03v7.19h15.17v2.54h-17.96v-21.98Z"/>
            <path class="cls-1" d="M114.95,211.63h2.8l9.45,17.62,9.45-17.62h2.79v21.98h-2.79v-16.55l-8.92,16.55h-1.07l-8.92-16.58v16.58h-2.8v-21.98Z"/>
            <path class="cls-1" d="M163.44,234.14c-5.4,0-11.74-3.8-11.74-11.52s6.34-11.53,11.74-11.53,11.74,3.77,11.74,11.53-6.34,11.52-11.74,11.52ZM163.44,213.8c-4.14,0-8.98,2.89-8.98,8.82s4.84,8.82,8.98,8.82,8.98-2.89,8.98-8.82-4.84-8.82-8.98-8.82Z"/>
            <path class="cls-1" d="M186.77,211.63h2.79l9.45,17.62,9.45-17.62h2.79v21.98h-2.79v-16.55l-8.92,16.55h-1.07l-8.92-16.58v16.58h-2.79v-21.98Z"/>
            <path class="cls-1" d="M234.76,211.09c3.64,0,7.22,1.67,9.39,4.71l-2.01,1.92c-1.7-2.39-4.77-3.93-7.32-3.93-5.71,0-8.57,4.43-8.57,8.82s2.86,8.79,8.57,8.79c2.8,0,5.62-1.7,7.22-3.99l2.1,1.98c-2.23,3.01-5.97,4.74-9.39,4.74-5.21,0-11.34-3.8-11.34-11.52s6.12-11.53,11.34-11.53Z"/>
            <path class="cls-1" d="M264.57,229.57c-4.43,0-9.62-3.06-9.62-9.34s5.19-9.34,9.62-9.34,9.62,3.06,9.62,9.34-5.19,9.34-9.62,9.34ZM264.57,213.7c-3.09,0-6.68,2.13-6.68,6.53s3.59,6.53,6.68,6.53,6.68-2.15,6.68-6.53-3.59-6.53-6.68-6.53Z"/>
          </g>
          <rect class="cls-1" x="255.81" y="232.79" width="18.34" height="2.1"/>
        </g>
      </g>
    </g>
  </g>
</svg>